<svg version="1.1" viewBox="270 72 167 250" xmlns="http://www.w3.org/2000/svg">
  <path fill="#cc0000" d="m317.1228 139.16772c-0.330719 -21.066025 10.53067 -40.693512 28.454803 -51.420425c17.924164 -10.726913 40.157776 -10.90551 58.248047 -0.46790314c18.09024 10.437614 29.258331 29.888145 29.258331 50.956825z"/>
  <path fill="#cc0000" d="m316.937 138.2336l116.346466 0l0 153.98424l-116.346466 0z"/>
  <path fill="#cc0000" d="m280.27292 178.23238c-5.640167 -5.4658356 -7.9509277 -13.502701 -6.053711 -21.05513c1.8971863 -7.552414 7.7108765 -13.460281 15.230835 -15.477509c7.519928 -2.0172424 15.591003 0.16601562 21.144714 5.7197113z"/>
  <path fill="#cc0000" d="m279.97824 178.03632l30.668915 -30.66893l61.8526 61.8526l-30.668915 30.668915z"/>
  <path fill="#990000" d="m316.937 253.82414l116.346466 0l0 38.393692l-116.346466 0z"/>
</svg>
